<svg width="313" height="69" viewBox="0 0 313 69" fill="none" xmlns="http://www.w3.org/2000/svg">
<path d="M76.1772 10.2807H81.6692C83.6333 10.2807 85.1554 10.8267 86.2354 11.9185C87.3154 13.0044 87.8554 14.5681 87.8554 16.6094C87.8554 18.6625 87.3095 20.2618 86.2176 21.407C85.1317 22.5523 83.6155 23.1249 81.6692 23.1249H76.1772V10.2807ZM79.9513 13.2804V20.1253H81.1351C83.0518 20.1253 84.0101 18.9533 84.0101 16.6094C84.0101 15.5353 83.7579 14.7134 83.2536 14.1438C82.7551 13.5682 82.0489 13.2804 81.1351 13.2804H79.9513ZM97.4593 23.1249L96.7917 20.5703H92.8752L92.2077 23.1249H88.3624L92.5548 10.2807H97.2902L101.483 23.1249H97.4593ZM94.7979 13.2448L93.5606 17.9089H96.1063L94.8691 13.2448H94.7979ZM109.573 23.1249H104.678L100.779 10.2807H105.123L107.179 19.5467H107.25L109.306 10.2807H113.472L109.573 23.1249ZM123.806 20.1253V23.1249H114.994V10.2807H118.768V20.1253H123.806ZM134.068 23.1249L133.401 20.5703H129.484L128.817 23.1249H124.971L129.164 10.2807H133.899L138.092 23.1249H134.068ZM131.407 13.2448L130.17 17.9089H132.715L131.478 13.2448H131.407ZM144.589 23.1249H140.815V13.2804H137.432V10.2807H147.971V13.2804H144.589V23.1249ZM154.896 11.8473C156.059 10.6546 157.634 10.0582 159.622 10.0582C161.61 10.0582 163.185 10.6546 164.349 11.8473C165.512 13.04 166.093 14.66 166.093 16.7073C166.093 18.7545 165.512 20.3745 164.349 21.5673C163.185 22.7541 161.61 23.3475 159.622 23.3475C157.628 23.3475 156.05 22.7541 154.887 21.5673C153.73 20.3745 153.151 18.7545 153.151 16.7073C153.151 14.66 153.733 13.04 154.896 11.8473ZM161.527 14.0548C161.046 13.3961 160.411 13.0668 159.622 13.0668C158.833 13.0668 158.198 13.3961 157.717 14.0548C157.237 14.7134 156.996 15.5976 156.996 16.7073C156.996 17.811 157.234 18.6922 157.708 19.3509C158.189 20.0096 158.827 20.3389 159.622 20.3389C160.417 20.3389 161.052 20.0096 161.527 19.3509C162.008 18.6922 162.248 17.811 162.248 16.7073C162.248 15.5976 162.008 14.7134 161.527 14.0548ZM174.451 23.1249H167.926V10.2807H174.237C175.549 10.2807 176.569 10.5656 177.299 11.1352C178.035 11.699 178.403 12.4822 178.403 13.4851C178.403 14.215 178.157 14.8381 177.664 15.3543C177.172 15.8646 176.549 16.1673 175.795 16.2622V16.3334C176.673 16.3572 177.424 16.6628 178.047 17.2502C178.67 17.8318 178.982 18.5439 178.982 19.3865C178.982 20.514 178.569 21.4189 177.744 22.1013C176.919 22.7837 175.822 23.1249 174.451 23.1249ZM171.7 12.8709V15.4255H173.16C173.641 15.4255 174.024 15.3098 174.308 15.0784C174.593 14.847 174.736 14.5354 174.736 14.1438C174.736 13.7462 174.599 13.4347 174.326 13.2092C174.059 12.9837 173.688 12.8709 173.214 12.8709H171.7ZM171.7 20.5347H173.312C173.899 20.5347 174.35 20.4072 174.664 20.152C174.985 19.8909 175.145 19.52 175.145 19.0394C175.145 18.5824 174.985 18.2264 174.664 17.9712C174.344 17.7161 173.902 17.5885 173.338 17.5885H171.7V20.5347ZM187.597 23.1249H183.823V19.0572L179.435 10.2807H183.467L185.719 15.4878H185.79L188.042 10.2807H191.986L187.597 19.0572V23.1249ZM202.569 20.1253V23.1249H193.507V10.2807H202.569V13.2804H197.281V15.3543H202.239V18.0602H197.281V20.1253H202.569ZM208.47 23.1249H204.696V10.2807H208.47V15.7282H208.541L212.511 10.2807H216.472L212.244 15.9863L216.667 23.1249H212.279L209.475 18.4074L208.47 19.7603V23.1249ZM224.598 23.1249H220.824V13.2804H217.442V10.2807H227.98V13.2804H224.598V23.1249ZM238.448 20.1253V23.1249H229.636V10.2807H233.41V20.1253H238.448ZM248.71 23.1249L248.043 20.5703H244.126L243.459 23.1249H239.613L243.806 10.2807H248.541L252.733 23.1249H248.71ZM246.049 13.2448L244.812 17.9089H247.357L246.12 13.2448H246.049ZM258.029 13.0668V16.3245H259.587C260.115 16.3245 260.53 16.1762 260.833 15.8795C261.142 15.5828 261.296 15.1911 261.296 14.7045C261.296 14.2239 261.139 13.8322 260.824 13.5296C260.51 13.221 260.1 13.0668 259.596 13.0668H258.029ZM258.029 18.8168V23.1249H254.255V10.2807H259.961C261.658 10.2807 262.946 10.6605 263.824 11.4201C264.708 12.1796 265.15 13.2537 265.15 14.6422C265.15 15.4196 264.966 16.1376 264.598 16.7963C264.236 17.455 263.729 17.9416 263.076 18.2561L265.515 23.1249H261.296L259.266 18.8168H258.029ZM270.82 23.1249H267.046V10.2807H270.82V23.1249ZM272.965 10.2807H278.456C280.421 10.2807 281.943 10.8267 283.023 11.9185C284.103 13.0044 284.643 14.5681 284.643 16.6094C284.643 18.6625 284.097 20.2618 283.005 21.407C281.919 22.5523 280.403 23.1249 278.456 23.1249H272.965V10.2807ZM276.739 13.2804V20.1253H277.922C279.839 20.1253 280.797 18.9533 280.797 16.6094C280.797 15.5353 280.545 14.7134 280.041 14.1438C279.542 13.5682 278.836 13.2804 277.922 13.2804H276.739ZM294.247 23.1249L293.579 20.5703H289.663L288.995 23.1249H285.15L289.342 10.2807H294.077L298.27 23.1249H294.247ZM291.585 13.2448L290.348 17.9089H292.894L291.656 13.2448H291.585ZM303.352 23.1249H299.792V10.2807H302.72L307.678 16.9387H307.749V10.2807H311.31V23.1249H308.417L303.423 16.3601H303.352V23.1249ZM79.9513 41.1249H76.1772V28.2807H85.2029V31.2804H79.9513V33.746H84.7044V36.5765H79.9513V41.1249ZM87.9711 29.8473C89.1342 28.6546 90.7097 28.0582 92.6976 28.0582C94.6855 28.0582 96.261 28.6546 97.424 29.8473C98.5871 31.04 99.1686 32.66 99.1686 34.7073C99.1686 36.7545 98.5871 38.3745 97.424 39.5673C96.261 40.7541 94.6855 41.3475 92.6976 41.3475C90.7037 41.3475 89.1253 40.7541 87.9622 39.5673C86.8051 38.3745 86.2265 36.7545 86.2265 34.7073C86.2265 32.66 86.808 31.04 87.9711 29.8473ZM94.6024 32.0548C94.1217 31.3961 93.4868 31.0668 92.6976 31.0668C91.9083 31.0668 91.2734 31.3961 90.7927 32.0548C90.3121 32.7134 90.0718 33.5976 90.0718 34.7073C90.0718 35.811 90.3091 36.6922 90.7838 37.3509C91.2645 38.0096 91.9024 38.3389 92.6976 38.3389C93.4927 38.3389 94.1277 38.0096 94.6024 37.3509C95.083 36.6922 95.3234 35.811 95.3234 34.7073C95.3234 33.5976 95.083 32.7134 94.6024 32.0548ZM107.286 41.1249H103.512V37.0572L99.1241 28.2807H103.156L105.408 33.4878H105.479L107.731 28.2807H111.675L107.286 37.0572V41.1249ZM112.832 28.2807H118.324C120.288 28.2807 121.81 28.8267 122.89 29.9185C123.97 31.0044 124.51 32.5681 124.51 34.6094C124.51 36.6625 123.964 38.2618 122.872 39.407C121.786 40.5523 120.27 41.1249 118.324 41.1249H112.832V28.2807ZM116.606 31.2804V38.1253H117.79C119.706 38.1253 120.665 36.9533 120.665 34.6094C120.665 33.5353 120.412 32.7134 119.908 32.1438C119.41 31.5682 118.703 31.2804 117.79 31.2804H116.606ZM133.749 41.1249L133.082 38.5703H129.165L128.498 41.1249H124.652L128.845 28.2807H133.58L137.772 41.1249H133.749ZM131.088 31.2448L129.851 35.9089H132.396L131.159 31.2448H131.088ZM147.742 38.1253V41.1249H138.93V28.2807H142.704V38.1253H147.742ZM157.64 41.1249L156.972 38.5703H153.056L152.388 41.1249H148.543L152.735 28.2807H157.471L161.663 41.1249H157.64ZM154.978 31.2448L153.741 35.9089H156.287L155.049 31.2448H154.978ZM166.38 41.1249H162.82V28.2807H165.748L170.706 34.9387H170.778V28.2807H174.338V41.1249H171.445L166.452 34.3601H166.38V41.1249ZM179.892 41.1249H176.118V28.2807H179.892V41.1249ZM181.316 37.342H184.886C184.939 37.698 185.159 37.9888 185.544 38.2143C185.93 38.4398 186.381 38.5525 186.897 38.5525C187.455 38.5525 187.897 38.4517 188.224 38.2499C188.556 38.0481 188.722 37.79 188.722 37.4755C188.722 37.1788 188.589 36.9533 188.322 36.799C188.055 36.6388 187.571 36.4964 186.871 36.3718L185.171 36.0691C183.996 35.8674 183.094 35.4401 182.465 34.7874C181.842 34.1346 181.53 33.3039 181.53 32.2951C181.53 31.0133 182.023 29.9868 183.008 29.2153C183.993 28.4439 185.263 28.0582 186.817 28.0582C188.508 28.0582 189.82 28.4202 190.752 29.1441C191.683 29.8681 192.155 30.8591 192.167 32.1171H188.722C188.71 31.7254 188.532 31.4169 188.188 31.1914C187.844 30.9599 187.411 30.8442 186.888 30.8442C186.396 30.8442 186.004 30.9392 185.714 31.1291C185.423 31.3189 185.277 31.5741 185.277 31.8945C185.277 32.1972 185.414 32.4375 185.687 32.6155C185.96 32.7936 186.405 32.936 187.022 33.0428L188.784 33.3454C190.031 33.565 190.95 33.9774 191.544 34.5827C192.143 35.182 192.443 36.0039 192.443 37.0483C192.443 38.3597 191.932 39.4041 190.912 40.1814C189.897 40.9588 188.535 41.3475 186.826 41.3475C185.093 41.3475 183.743 41.0003 182.776 40.306C181.809 39.6058 181.322 38.6178 181.316 37.342ZM205.937 41.1249H202.163V36.1582H197.641V41.1249H193.867V28.2807H197.641V33.1585H202.163V28.2807H205.937V41.1249ZM88.8612 59.1249H87.7219V48.5861H87.6685L83.2001 59.0626H82.1409L77.6815 48.5861H77.6281V59.1249H76.4888V46.2807H77.8862L82.6483 57.5227H82.7017L87.4548 46.2807H88.8612V59.1249ZM99.8006 59.1249L98.3764 55.1907H92.9824L91.5582 59.1249H90.2676L95.0741 46.2807H96.2847L101.082 59.1249H99.8006ZM95.6527 47.785L93.3473 54.1404H98.0115L95.7061 47.785H95.6527ZM103.708 47.3667V52.7874H106.93C107.868 52.7874 108.595 52.55 109.111 52.0753C109.627 51.6006 109.885 50.933 109.885 50.0726C109.885 49.224 109.618 48.5624 109.084 48.0876C108.556 47.607 107.823 47.3667 106.886 47.3667H103.708ZM103.708 53.8644V59.1249H102.498V46.2807H107.028C108.28 46.2807 109.277 46.6219 110.019 47.3043C110.767 47.9808 111.141 48.8917 111.141 50.037C111.141 50.9449 110.897 51.7222 110.411 52.369C109.924 53.0159 109.251 53.449 108.39 53.6686L111.505 59.1249H110.081L107.126 53.8644H106.93H103.708ZM114.336 59.1249H113.125V46.2807H114.336V52.9387H114.407L120.513 46.2807H122.053L116.775 51.9596L122.578 59.1249H121.021L115.92 52.823L114.336 54.5409V59.1249ZM132.432 59.1249L131.008 55.1907H125.614L124.189 59.1249H122.899L127.705 46.2807H128.916L133.714 59.1249H132.432ZM128.284 47.785L125.979 54.1404H130.643L128.337 47.785H128.284ZM134.702 59.1249V58.2437L142.41 47.4379V47.3845H134.951V46.2807H143.95V47.1708L136.259 57.9678V58.0212H144.057V59.1249H134.702ZM147.234 59.1249H146.024V46.2807H147.234V59.1249Z" fill="white"/>
<path opacity="0.5" d="M0 21.8849L27.9034 42.587V68.9378L0 48.2357V21.8849Z" fill="white"/>
<path opacity="0.5" d="M0 47.0529L27.9034 26.3509V8.26763e-05L0 20.7021V47.0529Z" fill="white"/>
<path opacity="0.5" d="M56.9004 21.8849L28.997 42.587V68.9378L56.9004 48.2357V21.8849Z" fill="white"/>
<path opacity="0.5" d="M56.9004 47.0529L28.997 26.3509V8.40414e-05L56.9004 20.7021V47.0529Z" fill="white"/>
</svg>
